<svg width="57" height="57" viewBox="0 0 57 57" fill="none" xmlns="http://www.w3.org/2000/svg">
<path d="M0 28.5C0 12.7599 12.7599 0 28.5 0C44.2401 0 57 12.7599 57 28.5C57 44.2401 44.2401 57 28.5 57C12.7599 57 0 44.2401 0 28.5Z" fill="#D34D35"/>
<path d="M28.4996 22.8008V28.5008M28.4996 34.2008H28.5139M41.3246 28.5008C41.3246 30.185 40.9929 31.8527 40.3484 33.4087C39.7039 34.9647 38.7592 36.3785 37.5683 37.5694C36.3774 38.7603 34.9635 39.705 33.4075 40.3495C31.8515 40.9941 30.1838 41.3258 28.4996 41.3258C26.8154 41.3258 25.1477 40.9941 23.5917 40.3495C22.0357 39.705 20.6219 38.7603 19.431 37.5694C18.2401 36.3785 17.2954 34.9647 16.6509 33.4087C16.0063 31.8527 15.6746 30.185 15.6746 28.5008C15.6746 25.0994 17.0258 21.8373 19.431 19.4321C21.8361 17.027 25.0982 15.6758 28.4996 15.6758C31.901 15.6758 35.1631 17.027 37.5683 19.4321C39.9734 21.8373 41.3246 25.0994 41.3246 28.5008Z" stroke="white" stroke-width="2.85" stroke-linecap="round" stroke-linejoin="round"/>
</svg>
